<?xml version="1.0" encoding="utf-8"?>
<!-- Generator: Adobe Illustrator 21.0.1, SVG Export Plug-In . SVG Version: 6.00 Build 0)  -->
<svg version="1.1" id="Logo_1_" xmlns="http://www.w3.org/2000/svg" xmlns:xlink="http://www.w3.org/1999/xlink" x="0px" y="0px"
	 viewBox="0 0 1165 346.1" style="enable-background:new 0 0 1165 346.1;" xml:space="preserve">
<style type="text/css">
	.st0{fill-rule:evenodd;clip-rule:evenodd;fill:#16A0D3;}
	.st1{fill:#FFFFFF;}
	.st2{fill-rule:evenodd;clip-rule:evenodd;fill:#343A8F;}
	.st3{fill:#343A8F;}
</style>
<g id="LOGO_1_">
	<g id="Фигура_1_копия_3">
		<g>
			<path class="st0" d="M671.1,325.9c-3.8,0-8.6-3.2-9.7-6.4c-0.8-2.4-0.8-5.6-0.8-8.5c0-1,0-2,0-2.9c-0.2-6.6-0.2-13.3-0.2-19.8
				v-0.2c0-3.3,0-6.6,0-10c0-10.8,0.1-22-0.3-33.1c0-0.8,0-1.8,0-3c0.1-5.9,0.3-14.8-5.4-17.1c-5.7-2.3-13-2.5-19.4-2.8
				c-2.2-0.1-4.3-0.1-6.2-0.3c-29.2-2.2-59.3-3.3-85.9-4.2c-10.8-0.4-21.8-0.7-32.7-1.1c-0.4,0-0.7,0-1.1,0c-0.6,0-1.2,0-1.8,0
				c-0.5,0-1,0-1.4,0c-2.5,0-3.9-0.3-5.5-2.2c-2.9-3.5-6.4-8.8-6.2-14.6c0.2-6.5,6.4-14,12.8-15.5c3.9-0.9,8.3-1,11.8-1
				c1.8,0,3.6,0,5.4,0.1c1.8,0,3.5,0.1,5.2,0.1c0.9,0,1.8,0,2.7,0c49.5-1.5,99.9-2.4,148.7-3.3l9.8-0.2l0.1,0c2-0.2,4-0.3,5.8-0.3
				c7.2,0,13.1,1.2,17.5,3.7c9,4.9,6.7,13.6,2.5,25.4c-0.5,1.5-1,2.9-1.5,4.3c-9.7,29.4-19.2,58.7-28.4,87.1
				c-0.5,1.4-0.9,2.8-1.3,4.3c-1.2,3.9-2.4,7.9-4.1,11.4c-3,6.2-6.1,9.4-9.7,9.9C671.6,325.9,671.3,325.9,671.1,325.9z"/>
		</g>
		<g>
			<path class="st1" d="M696.8,181.9c6.8,0,12.4,1.1,16.6,3.4c7.6,4.1,5.6,11.8,1.5,23c-0.5,1.5-1.1,2.9-1.5,4.3
				c-9.7,29.4-19.2,58.7-28.4,87.1c-0.5,1.4-0.9,2.9-1.3,4.3c-1.2,3.8-2.3,7.7-4,11.1c-2.6,5.5-5.3,8.4-8.1,8.8c-0.2,0-0.3,0-0.5,0
				c-2.9,0-6.9-2.6-7.8-5c-0.7-2-0.7-5.1-0.7-7.8c0-1,0-2,0-3c-0.2-6.6-0.2-13.3-0.2-19.8l0-0.2c0-3.3,0-6.7,0-10
				c0-10.8,0.1-22.1-0.3-33.1c0-0.7,0-1.7,0-2.9c0.1-6.4,0.3-16.1-6.6-18.9c-6-2.4-13.5-2.7-20.1-2.9c-2.2-0.1-4.2-0.1-6.1-0.3
				c-29.3-2.2-59.4-3.3-86-4.2c-10.9-0.4-21.9-0.7-32.7-1.1c-0.4,0-0.8,0-1.2,0c-0.6,0-1.2,0-1.8,0c-0.5,0-1,0-1.4,0
				c-2.2,0-2.9-0.3-3.9-1.5c-2.7-3.2-5.9-8.1-5.7-13.3c0.2-5.5,5.9-12.4,11.2-13.6c3.7-0.9,8-1,11.3-1c1.8,0,3.6,0,5.4,0.1
				c1.7,0,3.5,0.1,5.3,0.1c1,0,1.9,0,2.8,0c49.5-1.5,99.9-2.4,148.6-3.3l6.2-0.1l3.5-0.1l0.1,0l0.1,0
				C693.1,182,695,181.9,696.8,181.9 M696.8,177.9c-2,0-4.1,0.1-6,0.3c-1.2,0-2.3,0-3.5,0.1c-51.6,1-103.3,1.9-154.9,3.4
				c-0.9,0-1.8,0-2.7,0c-3.4,0-7-0.1-10.6-0.1c-4.2,0-8.4,0.2-12.2,1.1c-7.2,1.6-14.1,10-14.3,17.4c-0.2,5.9,2.9,11.6,6.7,16
				c2.1,2.5,4.3,2.9,7,2.9c1,0,2.1,0,3.2,0c0.3,0,0.7,0,1,0c10.9,0.3,21.8,0.7,32.7,1.1c28.6,1,57.3,2.1,85.8,4.2
				c7.6,0.6,17.8,0,25,2.9c5.3,2.2,3.9,13.5,4.1,18.3c0.5,14.3,0.3,28.6,0.3,43c0,6.7,0,13.4,0.2,20c0.1,3.7-0.3,8.4,0.9,12
				c1.4,4.1,7,7.7,11.6,7.7c0.3,0,0.7,0,1-0.1c5.6-0.7,9.1-6.4,11.2-11c2.4-5,3.8-10.6,5.5-15.9c9.4-29,18.9-58.1,28.4-87.1
				c3.4-10.5,11-25.1-1.9-32.1C709.9,178.9,703.2,177.9,696.8,177.9L696.8,177.9z"/>
		</g>
	</g>
	<g id="Фигура_1_копия_2">
		<g>
			<path class="st2" d="M659,155.9c-7.2,0-13.1-1.2-17.6-3.7c-9-4.9-6.7-13.6-2.5-25.4c0.5-1.5,1-2.9,1.5-4.3
				c9.7-29.4,19.2-58.7,28.4-87.1c0.5-1.4,0.9-2.8,1.3-4.3c1.2-3.9,2.4-7.9,4.1-11.4c3-6.2,6.1-9.4,9.7-9.9c0.2,0,0.5,0,0.8,0
				c3.8,0,8.6,3.2,9.7,6.4c0.8,2.4,0.8,5.6,0.8,8.5c0,1,0,2,0,2.9c0.2,6.6,0.2,13.4,0.2,19.9c0,3.4,0,6.8,0,10.1
				c0,10.8-0.1,22,0.3,33c0,0.8,0,1.8,0,3c-0.1,5.9-0.3,14.8,5.4,17.1c5.7,2.3,13,2.5,19.5,2.8c2.2,0.1,4.3,0.1,6.2,0.3
				c29.2,2.2,59.4,3.3,86,4.2c10.8,0.4,21.8,0.7,32.7,1.1c0.4,0,0.7,0,1.1,0c0.6,0,1.2,0,1.8,0c0.5,0,1,0,1.4,0
				c2.5,0,3.9,0.3,5.5,2.2c2.9,3.5,6.4,8.8,6.2,14.6c-0.2,6.5-6.4,14-12.8,15.5c-3.9,0.9-8.4,1-11.8,1c-1.8,0-3.6,0-5.4-0.1
				c-1.8,0-3.5-0.1-5.2-0.1c-0.9,0-1.8,0-2.7,0c-49.6,1.5-100,2.4-148.7,3.3l-9.8,0.2l-0.1,0C662.8,155.8,660.9,155.9,659,155.9z"/>
		</g>
		<g>
			<path class="st1" d="M684.8,11.9L684.8,11.9c2.9,0,6.9,2.6,7.8,5c0.7,2,0.7,5.1,0.7,7.8c0,1,0,2,0,3c0.2,6.6,0.2,13.3,0.2,19.8
				l0,0.2c0,3.3,0,6.7,0,10c0,10.8-0.1,22.1,0.3,33.1c0,0.7,0,1.7,0,2.9c-0.1,6.4-0.3,16.1,6.6,18.9c6,2.4,13.5,2.7,20.1,2.9
				c2.2,0.1,4.2,0.1,6.1,0.3c29.3,2.2,59.4,3.3,86.1,4.2c10.9,0.4,21.9,0.7,32.7,1.1c0.4,0,0.8,0,1.2,0c0.6,0,1.2,0,1.8,0
				c0.5,0,1,0,1.4,0c2.2,0,2.9,0.3,3.9,1.5c2.7,3.2,5.9,8.1,5.7,13.3c-0.2,5.5-5.9,12.4-11.2,13.6c-3.7,0.9-8,1-11.3,1
				c-1.8,0-3.6,0-5.4-0.1c-1.7,0-3.5-0.1-5.3-0.1c-1,0-1.9,0-2.8,0c-49.6,1.5-100,2.4-148.7,3.3l-6.2,0.1l-3.5,0.1l-0.1,0l-0.1,0
				c-2,0.2-3.9,0.2-5.7,0.2c-6.8,0-12.4-1.1-16.6-3.4c-7.6-4.1-5.6-11.8-1.5-23c0.5-1.5,1.1-2.9,1.5-4.3
				c9.7-29.4,19.2-58.7,28.4-87.1c0.5-1.4,0.9-2.9,1.3-4.3c1.2-3.8,2.4-7.7,4-11.1c2.6-5.5,5.3-8.4,8.1-8.8
				C684.4,11.9,684.6,11.9,684.8,11.9 M684.8,7.9c-0.3,0-0.7,0-1,0.1c-5.6,0.7-9.1,6.4-11.3,11c-2.4,5-3.8,10.6-5.5,15.9
				c-9.5,29-18.9,58.1-28.4,87.1c-3.5,10.5-11,25.1,1.9,32.1c5.4,2.9,12.1,3.9,18.5,3.9c2,0,4.1-0.1,6-0.3c1.2,0,2.3,0,3.5-0.1
				c51.7-1,103.4-1.9,155-3.4c0.9,0,1.8,0,2.7,0c3.4,0,7,0.1,10.6,0.1c4.2,0,8.4-0.2,12.2-1.1c7.2-1.6,14.1-10,14.3-17.4
				c0.2-5.9-2.9-11.6-6.7-16c-2.1-2.5-4.3-2.9-7-2.9c-1,0-2.1,0-3.2,0c-0.3,0-0.7,0-1,0c-10.9-0.3-21.8-0.7-32.7-1.1
				c-28.6-1-57.3-2.1-85.9-4.2c-7.6-0.6-17.8,0-25.1-2.9c-5.3-2.2-3.9-13.5-4.1-18.3c-0.5-14.3-0.3-28.6-0.3-43c0-6.7,0-13.4-0.2-20
				c-0.1-3.7,0.3-8.4-0.9-12C694.9,11.5,689.4,7.9,684.8,7.9L684.8,7.9z"/>
		</g>
	</g>
	<g id="CREDIT">
		<g>
			<path class="st1" d="M10.6,90c0-35.8,26.8-65.2,65-65.2c23.2,0,37.3,8.1,49.3,19.6l-14.2,16.4c-10.1-9.4-20.9-15.7-35.3-15.7
				C51.3,45.2,33.8,65,33.8,90c0,24.7,17.5,44.8,41.6,44.8c15.5,0,25.4-6.3,36.2-16.4l14.2,14.4c-13.1,13.7-27.5,22.3-51.1,22.3
				C38,155.2,10.6,126.5,10.6,90z"/>
			<path class="st1" d="M138.2,27h56.2c29.5,0,46.8,15.8,46.8,40.1c0,20.7-12.4,33.1-30.1,38.2l34,47.7h-26.1l-31.3-43.9h-27.4V153
				h-22.1V27z M192.8,89.5c15.8,0,25.9-8.3,25.9-21.4c0-13.5-9.7-20.9-26.1-20.9h-32.2v42.3H192.8z"/>
			<path class="st1" d="M257.6,27H351v19.8h-71.3v32.8h63.2v19.8h-63.2v33.8h72.2V153h-94.3V27z"/>
			<path class="st1" d="M367.4,27h47c39.6,0,67,27.2,67,63c0,35.5-27.4,63-67,63h-47V27z M414.4,132.8c26.5,0,43.7-17.8,43.7-42.8
				c0-24.7-17.3-42.8-43.7-42.8h-24.8v85.7H414.4z"/>
			<path class="st1" d="M498.6,27h22.1v126h-22.1V27z"/>
			<path class="st1" d="M574.6,47.5h-40V27h102.2v20.5h-40V153h-22.3V47.5z"/>
		</g>
	</g>
	<g id="PLUS">
		<g>
			<path class="st3" d="M742.2,189h51.5c30.1,0,48.2,17.8,48.2,43.9c0,29.2-22.7,44.3-50.9,44.3h-21.1V315h-27.7V189z M791.8,252.5
				c13.9,0,22-8.3,22-19.4c0-12.4-8.6-19.1-22.5-19.1h-21.4v38.5H791.8z"/>
			<path class="st3" d="M851.6,189h27.7v100.8h62.8V315h-90.5V189z"/>
			<path class="st3" d="M946.6,261v-72h27.7v71.3c0,20.5,10.3,31.1,27.2,31.1c16.9,0,27.2-10.3,27.2-30.2V189h27.7v71.1
				c0,38.2-21.4,56.9-55.3,56.9C967.3,317,946.6,298.1,946.6,261z"/>
			<path class="st3" d="M1065.3,296.6l16.4-19.6c11.3,9.4,23.2,15.3,37.6,15.3c11.3,0,18.2-4.5,18.2-12.2c0-7-4.3-10.6-25.4-16
				c-25.4-6.5-41.8-13.5-41.8-38.9c0-22.9,18.4-38,44.1-38c18.4,0,34,5.8,46.8,16l-14.4,20.9c-11.2-7.7-22.1-12.4-32.8-12.4
				s-16.2,4.9-16.2,11.3c0,8.3,5.4,11,27.2,16.6c25.6,6.7,40,15.8,40,38.2c0,25-19.1,39.1-46.3,39.1
				C1099.6,316.8,1080.4,310.1,1065.3,296.6z"/>
		</g>
	</g>
	<g id="www.credit-plus.co.il">
		<g>
			<path class="st1" d="M131.5,274.8l-8.2,25.1c-0.2,0.7-0.7,1-1.4,1h-3.2c-0.8,0-1.2-0.4-1.4-1.1l-5.2-18.7c-0.1-0.4-0.3-1.1-0.5-2
				c-0.2-0.9-0.4-1.6-0.5-2.1h-0.6l-1,4l-5.1,18.7c-0.2,0.8-0.7,1.1-1.5,1.1h-3.1c-0.8,0-1.2-0.3-1.4-1l-8.2-25.1h3.6l6.2,20
				c0.2,0.6,0.5,1.9,1,3.8h0.7l1-3.8l5.2-19c0.2-0.7,0.6-1.1,1.4-1.1h3.1c0.7,0,1.2,0.4,1.4,1.1l5.2,18.9l1,3.8h0.8
				c0.5-2.1,0.9-3.3,1-3.8l6.2-20H131.5z"/>
			<path class="st1" d="M175.8,274.8l-8.2,25.1c-0.2,0.7-0.7,1-1.4,1h-3.2c-0.8,0-1.2-0.4-1.4-1.1l-5.2-18.7c-0.1-0.4-0.3-1.1-0.5-2
				c-0.2-0.9-0.4-1.6-0.5-2.1h-0.6l-1,4l-5.1,18.7c-0.2,0.8-0.7,1.1-1.5,1.1h-3.1c-0.8,0-1.2-0.3-1.4-1l-8.2-25.1h3.6l6.2,20
				c0.2,0.6,0.5,1.9,1,3.8h0.7l1-3.8l5.2-19c0.2-0.7,0.6-1.1,1.4-1.1h3.1c0.7,0,1.2,0.4,1.4,1.1l5.2,18.9l1,3.8h0.8
				c0.5-2.1,0.9-3.3,1-3.8l6.2-20H175.8z"/>
			<path class="st1" d="M220.1,274.8l-8.2,25.1c-0.2,0.7-0.7,1-1.4,1h-3.2c-0.8,0-1.2-0.4-1.4-1.1l-5.2-18.7c-0.1-0.4-0.3-1.1-0.5-2
				c-0.2-0.9-0.4-1.6-0.5-2.1h-0.6l-1,4l-5.1,18.7c-0.2,0.8-0.7,1.1-1.5,1.1h-3.1c-0.8,0-1.2-0.3-1.4-1l-8.2-25.1h3.6l6.2,20
				c0.2,0.6,0.5,1.9,1,3.8h0.7l1-3.8l5.2-19c0.2-0.7,0.6-1.1,1.4-1.1h3.1c0.7,0,1.2,0.4,1.4,1.1l5.2,18.9l1,3.8h0.8
				c0.5-2.1,0.9-3.3,1-3.8l6.2-20H220.1z"/>
			<path class="st1" d="M225.7,295.1h1.2c0.9,0,1.3,0.5,1.3,1.4v3.1c0,0.9-0.5,1.3-1.3,1.3h-1.2c-0.9,0-1.3-0.5-1.3-1.3v-3.1
				C224.4,295.6,224.9,295.1,225.7,295.1z"/>
			<path class="st1" d="M256,298l0.4,2.4c-2.7,0.8-5.5,1.2-8.5,1.2c-4.5,0-7.7-1-9.5-3.1c-1.8-2.1-2.8-5.6-2.8-10.6
				c0-5,0.9-8.6,2.8-10.7c1.8-2.1,5-3.1,9.5-3.1c3.2,0,5.9,0.4,8,1.2l-0.5,2.2c-1.9-0.3-4.2-0.4-7-0.4c-3.5,0-5.9,0.8-7.2,2.3
				c-1.4,1.5-2,4.4-2,8.5c0,4.1,0.7,7,2,8.5s3.8,2.3,7.2,2.3C251.4,298.6,253.9,298.4,256,298z"/>
			<path class="st1" d="M278.8,274.1l-0.4,3.2H277c-1.5,0-3,0.3-4.6,0.9c-1.5,0.6-3.5,1.7-5.9,3.1v19.5H263v-26.1h2.6l0.4,4.3
				c4.3-3.3,8.1-5,11.6-5H278.8z"/>
			<path class="st1" d="M298.7,289.5h-13.1c0.2,3.5,1,5.8,2.4,7.1c1.4,1.3,3.6,1.9,6.7,1.9c2.7,0,5.7-0.2,9-0.6l0.4,2.3
				c-2.2,0.9-5.5,1.3-9.9,1.3c-4.4,0-7.5-1.1-9.4-3.2c-1.9-2.1-2.8-5.7-2.8-10.7c0-5,0.9-8.6,2.7-10.6c1.8-2,4.8-3.1,9-3.1
				c3.7,0,6.4,0.7,8.2,2c1.8,1.4,2.7,3.4,2.7,6.1C304.8,287.1,302.8,289.5,298.7,289.5z M285.7,286.8h12.3c2.3,0,3.4-1.5,3.3-4.5
				c0-1.8-0.6-3.2-1.8-4c-1.2-0.8-3-1.2-5.5-1.2c-3.1,0-5.2,0.7-6.4,2.1C286.3,280.6,285.7,283.1,285.7,286.8z"/>
			<path class="st1" d="M331.2,300.9l-0.4-4c-3.6,3.1-7.1,4.7-10.5,4.7c-3.3,0-5.7-1.1-7.2-3.3c-1.5-2.2-2.2-5.7-2.2-10.5
				c0-5,0.8-8.5,2.3-10.6c1.5-2.1,4-3.1,7.5-3.1c3.3,0,6.6,0.8,9.9,2.5c-0.1-1.2-0.2-2.9-0.2-5.1v-8.4h3.4v37.8H331.2z M330.4,294.4
				V279c-3.7-1.3-6.7-1.9-9-1.9c-2.6,0-4.3,0.8-5.4,2.3s-1.5,4.3-1.5,8.3c0,4.1,0.5,6.9,1.5,8.5c1,1.6,2.8,2.3,5.2,2.3
				c1.5,0,2.9-0.3,4.2-0.9C326.8,297,328.4,295.9,330.4,294.4z"/>
			<path class="st1" d="M344.1,263.7h1.6c0.8,0,1.1,0.4,1.1,1.1v3.1c0,0.8-0.4,1.1-1.1,1.1h-1.6c-0.8,0-1.1-0.4-1.1-1.1v-3.1
				C343,264.1,343.3,263.7,344.1,263.7z M346.6,300.9h-3.4v-26.1h3.4V300.9z"/>
			<path class="st1" d="M369.1,298.2l0.4,2.6c-1.8,0.4-3.6,0.5-5.5,0.5c-4.3,0-6.5-2.2-6.5-6.5v-17.3h-4.8V275l4.8-0.3v-7.9h3.4v7.9
				h8.9v2.7H361v17c0,2.5,1.3,3.8,3.8,3.8H369.1z"/>
			<path class="st1" d="M391.7,288.6h-16.6v-2.7h16.6V288.6z"/>
			<path class="st1" d="M403.2,274.8l0.3,4.3c3.3-3.3,6.9-5,10.8-5c3.2,0,5.6,1.1,7,3.3c1.4,2.2,2.2,5.7,2.2,10.5
				c0,4.9-0.8,8.4-2.3,10.5c-1.5,2.1-4,3.1-7.4,3.1c-3.5,0-6.8-0.9-10.1-2.8c0.1,1.5,0.2,3.2,0.1,5.2v7.9h-3.4v-37.2H403.2z
				 M403.8,281.6v15c4,1.3,7.1,1.9,9.2,1.9c2.6,0,4.4-0.8,5.4-2.3c1-1.5,1.6-4.3,1.6-8.3c0-4-0.5-6.8-1.5-8.4
				c-1-1.6-2.7-2.4-5.1-2.4c-1.4,0-2.9,0.4-4.3,1.1C407.6,278.8,405.8,280,403.8,281.6z"/>
			<path class="st1" d="M434.8,263.1v31.3c0,2.5,1.3,3.8,3.8,3.8h2.8l0.4,2.6c-1,0.4-2.4,0.5-4.3,0.5c-1.9,0-3.3-0.5-4.4-1.6
				c-1.1-1.1-1.6-2.6-1.6-4.6v-32H434.8z"/>
			<path class="st1" d="M468.3,274.8v26.1h-2.7l-0.3-4.1c-4,3.2-7.9,4.8-11.6,4.8c-4.7,0-7.1-2.4-7.1-7.1v-19.7h3.4v18.7
				c0,1.8,0.4,3.1,1.1,3.9c0.8,0.8,2,1.2,3.7,1.2c1.5,0,3-0.3,4.4-1c1.5-0.7,3.3-1.8,5.6-3.3v-19.5H468.3z"/>
			<path class="st1" d="M489.6,289.8l-8-1.5c-2.1-0.4-3.5-1.1-4.5-2.2c-0.9-1.1-1.4-2.7-1.4-4.9c0-3,0.7-4.9,2.2-5.8
				c1.5-0.9,4.1-1.4,7.8-1.3c4,0.1,7.5,0.3,10.7,0.8l-0.3,2.5c-4.3-0.2-7.6-0.3-9.9-0.3c-2.9,0-4.8,0.2-5.7,0.6
				c-0.9,0.5-1.4,1.6-1.4,3.5c0,1.5,0.3,2.5,0.9,3.1c0.6,0.6,1.6,1,3.1,1.3l8,1.5c2.1,0.4,3.6,1.2,4.6,2.2c1,1.1,1.5,2.7,1.5,4.8
				c0,3.1-0.8,5.1-2.5,6c-1.6,0.9-4.4,1.4-8.4,1.4c-3.6,0-6.9-0.2-10-0.7l0.3-2.5c2.8,0.3,5.9,0.4,9.1,0.3c3.2,0,5.4-0.3,6.5-0.9
				c1.1-0.6,1.6-1.8,1.6-3.6c0-1.4-0.3-2.4-1-3C492.2,290.5,491.1,290.1,489.6,289.8z"/>
			<path class="st1" d="M505.5,295.1h1.2c0.9,0,1.3,0.5,1.3,1.4v3.1c0,0.9-0.5,1.3-1.3,1.3h-1.2c-0.9,0-1.3-0.5-1.3-1.3v-3.1
				C504.2,295.6,504.6,295.1,505.5,295.1z"/>
			<path class="st1" d="M535.7,298l0.4,2.4c-2.7,0.8-5.5,1.2-8.5,1.2c-4.5,0-7.7-1-9.5-3.1c-1.8-2.1-2.8-5.6-2.8-10.6
				c0-5,0.9-8.6,2.8-10.7c1.8-2.1,5-3.1,9.5-3.1c3.2,0,5.9,0.4,8,1.2l-0.5,2.2c-1.9-0.3-4.2-0.4-7-0.4c-3.5,0-5.9,0.8-7.2,2.3
				c-1.4,1.5-2,4.4-2,8.5c0,4.1,0.7,7,2,8.5s3.8,2.3,7.2,2.3C531.1,298.6,533.7,298.4,535.7,298z"/>
			<path class="st1" d="M543.8,277.2c1.8-2.1,4.9-3.1,9.3-3.1c4.4,0,7.5,1,9.3,3.1c1.8,2.1,2.7,5.6,2.7,10.7c0,5-0.9,8.6-2.7,10.6
				c-1.8,2.1-4.9,3.1-9.3,3.1c-4.4,0-7.5-1-9.3-3.1c-1.8-2.1-2.7-5.6-2.7-10.6C541,282.8,541.9,279.2,543.8,277.2z M559.7,279.3
				c-1.2-1.5-3.4-2.3-6.6-2.3c-3.2,0-5.4,0.8-6.6,2.3c-1.2,1.5-1.8,4.4-1.8,8.5c0,4.1,0.6,6.9,1.8,8.5c1.2,1.5,3.4,2.3,6.6,2.3
				c3.2,0,5.4-0.8,6.6-2.3c1.2-1.5,1.8-4.4,1.8-8.5C561.5,283.7,560.9,280.9,559.7,279.3z"/>
			<path class="st1" d="M573.6,295.1h1.2c0.9,0,1.3,0.5,1.3,1.4v3.1c0,0.9-0.5,1.3-1.3,1.3h-1.2c-0.9,0-1.3-0.5-1.3-1.3v-3.1
				C572.3,295.6,572.8,295.1,573.6,295.1z"/>
			<path class="st1" d="M585.9,263.7h1.6c0.8,0,1.1,0.4,1.1,1.1v3.1c0,0.8-0.4,1.1-1.1,1.1h-1.6c-0.8,0-1.1-0.4-1.1-1.1v-3.1
				C584.8,264.1,585.1,263.7,585.9,263.7z M588.4,300.9H585v-26.1h3.4V300.9z"/>
			<path class="st1" d="M601.1,263.1v31.3c0,2.5,1.3,3.8,3.8,3.8h2.8l0.4,2.6c-1,0.4-2.4,0.5-4.3,0.5c-1.9,0-3.3-0.5-4.4-1.6
				c-1.1-1.1-1.6-2.6-1.6-4.6v-32H601.1z"/>
		</g>
	</g>
</g>
</svg>
