<svg xmlns="http://www.w3.org/2000/svg" viewBox="0 0 512 512">
    <path d="M361.931 0H88.276c-9.75 0-17.655 7.904-17.655 17.655v476.69c0 9.75 7.905 17.655 17.655 17.655h335.448c9.75 0 17.655-7.905 17.655-17.655V79.448L361.931 0z" fill="#eff2fa"/>
    <g fill="#d7deed">
        <path d="M441.379 79.448h-69.517c-5.485 0-9.931-4.446-9.931-9.931V0l79.448 79.448z"/>
        <path d="M194.207 185.379h-70.621a8.829 8.829 0 0 1-8.828-8.828V105.93a8.829 8.829 0 0 1 8.828-8.828h70.621a8.829 8.829 0 0 1 8.828 8.828v70.621a8.829 8.829 0 0 1-8.828 8.828z"/>
    </g>
    <path d="M150.069 176.552a8.796 8.796 0 0 1-6.241-2.586l-35.31-35.31a8.825 8.825 0 0 1 0-12.483 8.824 8.824 0 0 1 12.482 0l29.069 29.069 46.724-46.724a8.825 8.825 0 0 1 12.483 0 8.824 8.824 0 0 1 0 12.482l-52.966 52.966a8.798 8.798 0 0 1-6.241 2.586z" fill="#82889d"/>
    <path d="M344.276 114.758H238.345a8.829 8.829 0 0 1 0-17.656h105.931a8.829 8.829 0 0 1 8.828 8.828 8.83 8.83 0 0 1-8.828 8.828z" fill="#afb9d2" opacity=".97"/>
    <path d="M256 150.069h-17.655a8.829 8.829 0 0 1 0-17.656H256a8.829 8.829 0 0 1 0 17.656z" fill="#c7cfe2" opacity=".97"/>
    <g fill="#d7deed">
        <path d="M388.414 150.068H291.31a8.829 8.829 0 0 1 0-17.656h97.103a8.829 8.829 0 0 1 8.828 8.828 8.827 8.827 0 0 1-8.827 8.828z"/>
        <path d="M317.793 185.379h-79.448a8.829 8.829 0 0 1 0-17.656h79.448a8.828 8.828 0 0 1 0 17.656z"/>
        <path d="M370.759 185.378h-17.655a8.829 8.829 0 0 1 0-17.656h17.655a8.828 8.828 0 0 1 0 17.656z"/>
        <path d="M194.207 317.793h-70.621a8.829 8.829 0 0 1-8.828-8.828v-70.621a8.829 8.829 0 0 1 8.828-8.828h70.621a8.829 8.829 0 0 1 8.828 8.828v70.621a8.829 8.829 0 0 1-8.828 8.828z"/>
    </g>
    <path d="M150.069 308.966a8.796 8.796 0 0 1-6.241-2.586l-35.31-35.31a8.825 8.825 0 0 1 0-12.483 8.824 8.824 0 0 1 12.482 0l29.069 29.069 46.724-46.724c3.448-3.448 9.035-3.448 12.483 0s3.448 9.035 0 12.483L156.31 306.38a8.798 8.798 0 0 1-6.241 2.586z" fill="#82889d"/>
    <path d="M344.276 247.171H238.345a8.829 8.829 0 0 1 0-17.656h105.931a8.829 8.829 0 0 1 0 17.656z" fill="#afb9d2" opacity=".97"/>
    <path d="M256 282.483h-17.655a8.829 8.829 0 0 1 0-17.656H256a8.829 8.829 0 0 1 0 17.656z" fill="#c7cfe2" opacity=".97"/>
    <g fill="#d7deed">
        <path d="M388.414 282.482H291.31a8.829 8.829 0 0 1 0-17.656h97.103a8.828 8.828 0 1 1 .001 17.656z"/>
        <path d="M317.793 317.793h-79.448a8.829 8.829 0 0 1 0-17.656h79.448a8.828 8.828 0 0 1 0 17.656z"/>
        <path d="M370.759 317.792h-17.655a8.829 8.829 0 0 1 0-17.656h17.655a8.828 8.828 0 0 1 0 17.656z"/>
        <path d="M194.207 450.208h-70.621a8.829 8.829 0 0 1-8.828-8.828v-70.62a8.829 8.829 0 0 1 8.828-8.828h70.621a8.829 8.829 0 0 1 8.828 8.828v70.621a8.83 8.83 0 0 1-8.828 8.827z"/>
    </g>
    <path d="M150.069 441.379a8.796 8.796 0 0 1-6.241-2.586l-35.31-35.31a8.825 8.825 0 0 1 0-12.483A8.824 8.824 0 0 1 121 391l29.069 29.069 46.724-46.724c3.448-3.448 9.035-3.448 12.483 0s3.448 9.035 0 12.483l-52.966 52.966a8.797 8.797 0 0 1-6.241 2.585z" fill="#82889d"/>
    <path d="M344.276 379.586H238.345a8.829 8.829 0 0 1 0-17.656h105.931a8.829 8.829 0 0 1 0 17.656z" fill="#afb9d2" opacity=".97"/>
    <path d="M256 414.898h-17.655a8.829 8.829 0 0 1 0-17.656H256a8.829 8.829 0 0 1 0 17.656z" fill="#c7cfe2" opacity=".97"/>
    <g fill="#d7deed">
        <path d="M388.414 414.897H291.31a8.829 8.829 0 0 1 0-17.656h97.103a8.829 8.829 0 0 1 8.828 8.828 8.827 8.827 0 0 1-8.827 8.828z"/>
        <path d="M317.793 450.208h-79.448a8.829 8.829 0 0 1 0-17.656h79.448a8.829 8.829 0 0 1 0 17.656z"/>
        <path d="M370.759 450.208h-17.655a8.829 8.829 0 0 1 0-17.656h17.655a8.829 8.829 0 0 1 8.828 8.828 8.83 8.83 0 0 1-8.828 8.828z"/>
    </g>
</svg>
