<svg id="objects" xmlns="http://www.w3.org/2000/svg" viewBox="0 0 688.9 448">
    <style>
        .st0,.st1,.st2,.st3{fill-rule:evenodd;clip-rule:evenodd;fill:#ffdecc}.st1,.st2,.st3{fill:#333}.st2,.st3{fill:#f6c89d}.st3{fill:#fff}.st4{opacity:.2}.st5{fill:#80604a}.st6{opacity:5e-2}.st10,.st7,.st8,.st9{fill-rule:evenodd;clip-rule:evenodd}.st7{opacity:.1}.st10,.st8,.st9{fill:#80604a}.st10,.st9{fill:#c93838}.st10{fill:#f6d1af}.st11{fill:#343434}.st12,.st13,.st14,.st15,.st16,.st17{fill-rule:evenodd;clip-rule:evenodd;fill:#ededed}.st13,.st14,.st15,.st16,.st17{fill:#f6c8ac}.st14,.st15,.st16,.st17{fill:#343434}.st15,.st16,.st17{fill:#1a1a1a}.st16,.st17{fill:#1b1b1b}.st17{fill:#268085}.st18{fill:#605343}.st19,.st20,.st21{fill-rule:evenodd;clip-rule:evenodd;fill:#605343}.st20,.st21{fill:#bf9741}.st21{fill:#7491a0}.st22{fill:#f6dbc2}.st22,.st23,.st24,.st25,.st26{fill-rule:evenodd;clip-rule:evenodd}.st23{opacity:.2}.st24,.st25,.st26{fill:#f6dcb9}.st25,.st26{fill:#dbb18a}.st26{fill:#f6d9c7}.st27{fill:#bf9741}.st28{fill-rule:evenodd;clip-rule:evenodd;fill:#806049}.st29{fill:#f5d5c1}.st29,.st30,.st31{fill-rule:evenodd;clip-rule:evenodd}.st30{opacity:5e-2}.st31{fill:#ffdbba}.st32{fill:#605f5b}.st32,.st33{fill-rule:evenodd;clip-rule:evenodd}.st33,.st34{fill:#755a48}.st35,.st36,.st37{fill-rule:evenodd;clip-rule:evenodd;fill:#f6c5a0}.st36,.st37{fill:#9fbac4}.st37{fill:#28a8e3}
    </style>
    <path class="st0" d="M404.9 129.8c-42.9 18.8-55.8 28.8-60.9 33.4-7.8 6.9-12.2 32.8-16.8 54.8h194.2c-4.6-22-9-47.8-16.8-54.8-5.1-4.5-17.5-14.3-60.4-33.1l-39.3-.3z"/>
    <path class="st1" d="M404.9 129.8c-42.9 18.8-55.8 28.8-60.9 33.4-7.8 6.9-12.2 32.8-16.8 54.8h194.2c-4.6-22-9-47.8-16.8-54.8-5.1-4.5-17.5-14.3-60.4-33.1l-39.3-.3z"/>
    <path class="st2" d="M403.5 92.3V139.9c11.5 13.6 30.2 14 41.7 0V92.3c0-25.7-41.7-25.7-41.7 0z"/>
    <ellipse transform="rotate(-18.223 384.677 73.881)" class="st2" cx="384.6" cy="73.9" rx="7" ry="12.1"/>
    <ellipse transform="rotate(-71.766 463.807 73.875)" class="st2" cx="463.8" cy="73.9" rx="12.1" ry="7"/>
    <path class="st3" d="M403.5 124.2l-1.8 7.1 5.1 36.9 17.7-17.9-21-26.1z"/>
    <path class="st4" d="M403.5 115.3v1.5s10.6 12.6 20.8 13.1c10.2.5 20.9-12.2 20.9-12.2v-2.3"/>
    <path class="st2" d="M424.4 6.9c-64.1 0-39.5 87.8-35.4 94.6 4.6 7.4 25 23.8 35.4 23.8 10.4 0 30.7-16.4 35.4-23.8 4.1-6.8 28.7-94.6-35.4-94.6z"/>
    <path class="st5" d="M469.9 67c3.3-16.3 1.2-54.4-11.5-53.1-11.8-12-53-14.2-64.3-1.3-25.8 5-13.8 54.6-13.8 54.6.8 4.8 1.9 9.2 3.1 13 1.7-.1 3.5-.2 5.2-.3-1.9-3.4-3.4-6.9-4-9.5-.3-1.5-1.1-6.8-1-8 .4-8.9 6.8-34.9 17.9-37 4.3-.8 15.2 9 22.3 8.9 7.5-.2 16.8-10 21.7-9.4 11.6 1.6 21.4 25.4 21.3 37 0 1.5-1.9 10.3-4.7 16.6 1.9-.1 3.7-.2 5.6-.3.7-3.3 1.6-7.1 2.2-11.2z"/>
    <path class="st3" d="M445.2 124.2l1.4 7-4.8 37.4-17.4-18.3 20.8-26.1z"/>
    <path class="st6" d="M403.5 124.2l20.9 26 20.8-26v-.7l-20.8 26-20.9-26v.7"/>
    <path class="st7" d="M420.4 167.7h7.8l.1.3h-7.9z"/>
    <g>
        <path class="st8" d="M425.9 91c-.9 0-1.6 1.3-1.6 1.3s-.7-1.3-1.6-1.3c-3.7 0-18.7 1.5-23.1 7.1 0 0 21.3-.4 22.5-.7 1.2-.3 2.2-2.7 2.2-2.7s1 2.3 2.2 2.7c1.2.3 22.5.7 22.5.7-4.3-5.6-19.4-7.1-23.1-7.1z"/>
    </g>
    <g>
        <path class="st0" d="M234.9 129.8c-42.9 18.8-55.8 28.8-60.9 33.4-7.8 6.9-12.2 32.8-16.8 54.8h194.2c-4.6-22-9-47.8-16.8-54.8-5.1-4.5-17.5-14.3-60.4-33.1l-39.3-.3z"/>
        <path class="st9" d="M234.9 129.8c-42.9 18.8-55.8 28.8-60.9 33.4-7.8 6.9-12.2 32.8-16.8 54.8h194.2c-4.6-22-9-47.8-16.8-54.8-5.1-4.5-17.5-14.3-60.4-33.1l-39.3-.3z"/>
        <path class="st10" d="M233.5 92.3V139.9c11.5 13.6 30.2 14 41.7 0V92.3c0-25.7-41.7-25.7-41.7 0z"/>
        <ellipse transform="rotate(-18.223 214.66 73.883)" class="st10" cx="214.6" cy="73.9" rx="7" ry="12.1"/>
        <ellipse transform="rotate(-71.766 293.81 73.875)" class="st10" cx="293.8" cy="73.9" rx="12.1" ry="7"/>
        <path class="st4" d="M233.5 115.3v1.5s10.6 12.6 20.8 13.1c10.2.5 20.9-12.2 20.9-12.2v-2.3"/>
        <path class="st10" d="M254.4 6.9c-64.1 0-39.5 87.8-35.4 94.6 4.6 7.4 25 23.8 35.4 23.8 10.4 0 30.7-16.4 35.4-23.8 4.1-6.8 28.7-94.6-35.4-94.6z"/>
        <path class="st11" d="M283.1 8.9c-21.7-17-55.1-6.9-65.2 7.3-12.6 17.8-8.2 44.8-5.2 65v-.1c0 .2.1.4.1.6 0 .2.4.6.5.8.1.2.9 0 1.2-.1.1 0 .1-.2.1-.3.1-1.8 0-5.3 0-5.4-.2-2.8-.8-5.5-1.3-8.2 2-12.8 8-15.5 11.2-30.9l2.1-3c.9-1.1 1.7-2.2 2.8-3.2.5-.3 1.1-.7 1.6-1.1 11.7-4.3 23.7.9 34.7 5.3 4.2 1.7 4.8-5.8 9.5-6.1 2-.2 6.1 6.6 7.7 6.4 16.5-1.9 9.6 23.1 12.2 34.7-.4 2-.7 4-.9 6.1 0 0-.1 3.6 0 5.4 0 .1 0 .2.1.3.3.1 1 .3 1.2.1.1-.1.4-.6.5-.8.2-.8.2-1.4.3-2.2.1-1 .3-2.1.4-3.2 3.3-12.4 9.5-62-13.6-67.4zm-32.8 16.8c-.4-.1-.7-.2-1.1-.3.5.1 1.1.3 1.6.4-.2-.1-.3-.1-.5-.1z"/>
        <path class="st7" d="M250.4 167.7h7.8l.1.3h-7.9z"/>
        <path class="st11" d="M266.7 14.8s-18.7-13-35.3-6-31.3 9.7-35 5c0 0-10.3 21.7 9 33s41.3 2.3 47.7-4.7c6.3-7 16.7-18.3 22.3-16 5.7 2.4-8.7-11.3-8.7-11.3z"/>
    </g>
    <g>
        <path class="st0" d="M139.9 215.8C97 234.6 84.1 244.7 79 249.2c-7.8 6.9-12.2 32.8-16.8 54.8h194.2c-4.6-22-9-47.8-16.8-54.8-5.1-4.5-17.5-14.3-60.4-33.1l-39.3-.3z"/>
        <path class="st12" d="M139.9 215.8C97 234.6 84.1 244.7 79 249.2c-7.8 6.9-12.2 32.8-16.8 54.8h194.2c-4.6-22-9-47.8-16.8-54.8-5.1-4.5-17.5-14.3-60.4-33.1l-39.3-.3z"/>
        <path class="st13" d="M138.5 178.3V225.9c11.5 13.6 30.2 14 41.7 0V178.3c0-25.7-41.7-25.7-41.7 0z"/>
        <ellipse transform="rotate(-18.223 119.651 159.892)" class="st13" cx="119.6" cy="159.9" rx="7" ry="12.1"/>
        <ellipse transform="rotate(-71.766 198.812 159.874)" class="st13" cx="198.8" cy="159.9" rx="12.1" ry="7"/>
        <path class="st14" d="M159.4 236.2s-29.1 6.9-29.1 8.7c0 1.8 11.1 59 11.1 59h39.5l4.5-58.8-26-8.9z"/>
        <path class="st15" d="M138.5 216.4v9.5l9 78.1H132l-17.2-34.8 16.4-10.9-20-9.4 18.4-28.5z"/>
        <path class="st16" d="M180.2 216.5v9.4L171 304h15.6l17.1-34.8-16.3-10.9 19.9-9.4-16.3-27.6z"/>
        <path class="st17" d="M150.4 245.9l5 7.8h7.8l5.1-7.8-8.9-9.7-9 9.7z"/>
        <path class="st17" d="M155.4 253.7l-7.2 50.3h22.2l-7.2-50.3z"/>
        <path class="st14" d="M138.5 210.2l-1.8 7.1 5.1 36.9 17.7-17.9-21-26.1z"/>
        <path class="st4" d="M138.5 201.3v1.5s10.6 12.6 20.8 13.1c10.2.5 20.9-12.2 20.9-12.2v-2.3"/>
        <path class="st13" d="M159.4 92.9c-64.1 0-39.5 87.8-35.4 94.6 4.6 7.4 25 23.8 35.4 23.8 10.4 0 30.7-16.4 35.4-23.8 4.1-6.8 28.7-94.6-35.4-94.6z"/>
        <path class="st14" d="M180.2 210.2l1.4 7-4.8 37.4-17.4-18.3 20.8-26.1z"/>
        <path class="st6" d="M138.5 210.2l20.9 26 20.8-26v-.7l-20.8 26-20.9-26v.7"/>
        <path class="st7" d="M155.4 253.7h7.8l.1.3h-7.9z"/>
        <path class="st18" d="M201.1 157.9c-.3 1.2-.7 2.3-.7 2.3s-5.8 19.6-10.7 25.6c-9.5 11.7-21.9 19-30.4 19.1-8.3 0-20.6-6.6-30.2-18-3.8-4.5-10.8-25-10.9-26.7-.1-1-.3-2.1-.5-3.1-1.3 0-1.3 8.7-1.3 8.7 1.9 10.2 3.3 16.8 7.3 22.4 6.4 8.9 24.3 23 35.3 23 10.9 0 28.9-14.1 35.3-23 4-5.6 5.1-13.1 7.3-23.6-.1-.1.5-6.6-.5-6.7z"/>
        <path class="st19" d="M179 184.1c-1.5-3.1-13.4-7.3-15.6-8.1-2.2-.8-3.7 2-3.7 2s-1.5-2.8-3.7-2c-2.2.8-14.1 5-15.6 8.1-1.5 3.1-2.2 5.3-2.2 7.4v9.7s2.1.1 3.3-.8c1.2-.9 2.6-3.5 2.6-6.8s2.4-5.9 5.3-6.5c3.1-.6 10.2-1.8 10.2-3.7 0 1.9 7.6 3.3 10.2 3.7 2.9.5 5.3 3.2 5.3 6.5s1.4 5.9 2.6 6.8c1.2.9 3.3.8 3.3.8v-9.7c.2-2.1-.5-4.3-2-7.4z"/>
        <path class="st17" d="M179.7 171.1c.4 0 .7 0 1.1-.1 10.4-.9 13-5.6 14.2-11.5 1.3-6.5 1.4-8.8 3.1-9.4 1.2-.4 1.5-1.9 1.5-3.6 0-1.7-.1-1.9-2.1-2.6-1.6-.6-10.5-1.4-17.2-.9v1.8c5.3-.3 10.3.3 11.8 1.3 3.3 2.2 2.4 12.6-.5 17.8-2 3.6-7.1 5.4-11.8 5.5l-.1 1.7zm-19.5-24.6c-2.3.1-11.7-2.7-18.4-3.2-.5 0-1-.1-1.5-.1v1.8c5.4.2 11.1 1.5 13 4.4 3.2 4.8-2.5 16.4-7.7 19-1.6.8-3.6 1.2-5.8 1.2v1.7c9 0 12.4-6.5 13.5-8.7 2.1-4.1 1.7-9.7 6.8-9.7 5.2 0 4.5 5.5 6.3 9.6 1 2.2 3.9 9 13.3 8.7v-1.6c-2.3 0-4.5-.4-6.1-1.2-5-2.6-10-14.2-6.5-19 2.1-2.9 7.7-4.2 13.1-4.4v-1.8c-.4 0-.8.1-1.2.1-6 .4-13.3 3.1-18.8 3.2zm-19.9-3.3c-6.6-.4-15.4.5-17 1-2.1.7-2.1.9-2.3 2.6-.1 1.7.1 3.1 1.3 3.6 1.6.6 1.6 2.9 2.5 9.4.8 5.9 3.1 10.6 13.5 11.4.5 0 1 .1 1.5.1v-1.7c-4.8 0-10.1-1.8-11.9-5.5-2.5-5.2-2.9-15.6.6-17.8 1.5-.9 6.5-1.6 11.7-1.4l.1-1.7z"/>
    </g>
    <g>
        <path class="st20" d="M78.5 198.9c3.9-7.3 35.4-13.7 48.2 12.2 12.8 25.8 6.4 34.9 13.4 44 7.1 9.1-9.6 79.7-49.1 79.5-42.2-.2-51.5-67.7-43.1-81.4 8.5-13.8 1.2-54.3 30.6-54.3z"/>
        <path class="st21" d="M109.5 319c-.4.6-35.6 1.1-35.9 1.7-11.1 15.8-34.9 18.7-53.9 22.9C.8 347.8 0 371.8 0 387.8h184.2c0-16-.4-39.9-19.7-44.2-19.2-4.3-44.5-8.1-55-24.6z"/>
        <path class="st3" d="M110.6 320.6v8.7l-9 58.6H82.4L73.5 330v-9.1-.1c.4-.6 35.6-1.1 35.9-1.7.5.4.8 1 1.2 1.5z"/>
        <path class="st22" d="M73.7 281.3v45.2c9.2 18.9 25.9 19.4 36.9 0v-45.2c0-24.4-36.9-24.4-36.9 0z"/>
        <path class="st22" d="M140.8 260.2c-3.7-1.7-8.9 2.4-11.6 9.1-2.7 6.7-2 13.5 1.7 15.1 3.7 1.7 8.9-2.4 11.6-9.1 2.8-6.7 2-13.4-1.7-15.1z"/>
        <path class="st22" d="M43.5 260.2c3.7-1.7 8.9 2.4 11.6 9.1 2.7 6.7 2 13.5-1.7 15.1-3.7 1.7-8.9-2.4-11.6-9.1-2.8-6.7-2-13.4 1.7-15.1z"/>
        <path class="st23" d="M73.7 303.8v1.3s11.6 11.6 18.3 11.6c6.7 0 18.6-11.7 18.6-11.7v-1.1H73.7z"/>
        <path class="st22" d="M92.2 312.6c-11.5 0-35.7-18.9-43.2-46-7.6-27.3 6.7-66.5 43.2-66.5s50.7 39.2 43.2 66.5c-7.6 27.1-31.8 46-43.2 46z"/>
        <path class="st20" d="M99.6 234c9 18.8 12.6 24.3 24.5 19.4 11.9-5 9.6 8.9 7.5 18.8 10.5-13.4 9.3-26.1 6-39-3.6-14.2-21.7-35.7-38.7-35.3-9.2-1-23.2.2-38.1 10.9-26 18.7-17.3 60.8-10.3 65.7-6.8-38.9 9.8-31 21.3-51.4 3.7-8.9 18-9.5 27.8 10.9z"/>
        <path class="st12" d="M82.6 387.8H66l-16.1-14.6 16.3-10.9-19.9-9.4 13.2-20.5 5.1-8 8.9-4v9.5l8.9 57.9z"/>
        <path class="st12" d="M117.8 361.6l16.3 10.9-16 15.3h-16.6.1l9-58.6v-9.3l10.9 4.8 4.7 8.1 11.6 19.5z"/>
    </g>
    <g>
        <path class="st19" d="M468.5 111c2.2-7.3 19.5-13.7 26.5 12.2 7.1 25.8 3.5 34.9 7.4 44 3.9 9.1-5.3 79.7-27 79.5-23.2-.2-28.3-67.7-23.7-81.4 4.6-13.7.6-54.3 16.8-54.3z"/>
        <path class="st19" d="M544.9 111c-2.2-7.3-19.5-13.7-26.5 12.2-7.1 25.8-3.5 34.9-7.4 44-3.9 9.1 5.3 79.7 27 79.5 23.2-.2 28.3-67.7 23.7-81.4-4.6-13.7-.6-54.3-16.8-54.3z"/>
        <path class="st9" d="M525.5 217c-.4.6-35.6 1.1-35.9 1.7-11.1 15.8-34.9 18.7-53.9 22.9-18.9 4.2-19.6 28.2-19.7 44.2h184.2c0-16-.4-39.9-19.7-44.2-19.2-4.3-44.5-8.1-55-24.6z"/>
        <path class="st9" d="M526.6 218.6v8.7l-9 58.6h-19.2l-8.9-57.9v-9.1-.1c.4-.6 35.6-1.1 35.9-1.7.5.4.8 1 1.2 1.5z"/>
        <path class="st24" d="M489.7 179.3v45.2c9.2 18.9 25.9 19.4 36.9 0v-45.2c0-24.4-36.9-24.4-36.9 0z"/>
        <path class="st24" d="M556.8 158.2c-3.7-1.7-8.9 2.4-11.6 9.1-2.7 6.7-2 13.5 1.7 15.1 3.7 1.7 8.9-2.4 11.6-9.1 2.8-6.7 2-13.4-1.7-15.1z"/>
        <path class="st24" d="M459.5 158.2c3.7-1.7 8.9 2.4 11.6 9.1 2.7 6.7 2 13.5-1.7 15.1-3.7 1.7-8.9-2.4-11.6-9.1-2.8-6.7-2-13.4 1.7-15.1z"/>
        <path class="st23" d="M489.7 201.8v1.3s11.6 11.6 18.3 11.6c6.7 0 18.6-11.7 18.6-11.7v-1.1h-36.9z"/>
        <path class="st24" d="M508.2 210.6c-11.5 0-35.7-18.9-43.2-46-7.6-27.3 6.7-66.5 43.2-66.5s50.7 39.2 43.2 66.5c-7.6 27.1-31.8 46-43.2 46z"/>
        <path class="st19" d="M553.6 131.2c-3.6-14.2-21.7-35.7-38.7-35.3-2.4-.3-5.2-.4-8.3-.2-3-.2-5.8-.1-8.3.2-17-.4-35.1 21.1-38.7 35.3-2.9 11.4-4.2 22.6 2.8 34.3 1.2 3.5 2.7 6 4.1 7-1.6-9-1.9-15.4-1.3-20.3 1.3-1.9 3.7-2.5 7.9-.8 11.9 5 15.5-.6 24.5-19.4 2.7-5.8 4.9-12.6 9-12.5 4.1 0 6.3 6.8 9 12.5 9 18.8 12.6 24.3 24.5 19.4 4.2-1.7 6.6-1.1 7.9.8.6 4.9.2 11.4-1.3 20.3 1.4-1 2.9-3.5 4.1-7 7-11.7 5.7-22.9 2.8-34.3z"/>
        <path class="st12" d="M498.6 285.8H482l-16.1-14.6 16.3-10.9-19.9-9.4 13.2-20.5 5.1-8 8.9-4v9.5l8.9 57.9z"/>
        <path class="st12" d="M533.8 259.6l16.3 10.9-16 15.3h-16.6.1l9-58.6v-9.3l10.9 4.8 4.7 8.1 11.6 19.5z"/>
    </g>
    <g>
        <path class="st0" d="M572.4 299.8c-42.9 18.8-55.8 28.8-60.9 33.4-7.8 6.9-12.2 32.8-16.8 54.8h194.2c-4.6-22-9-47.8-16.8-54.8-5.1-4.5-17.5-14.3-60.4-33.1l-39.3-.3z"/>
        <path class="st3" d="M572.4 299.8c-42.9 18.8-55.8 28.8-60.9 33.4-7.8 6.9-12.2 32.8-16.8 54.8h194.2c-4.6-22-9-47.8-16.8-54.8-5.1-4.5-17.5-14.3-60.4-33.1l-39.3-.3z"/>
        <path class="st25" d="M570.9 262.3V309.9c11.5 13.6 30.2 14 41.7 0V262.3c0-25.7-41.7-25.7-41.7 0z"/>
        <ellipse transform="rotate(-18.223 552.152 243.896)" class="st10" cx="552.1" cy="243.9" rx="7" ry="12.1"/>
        <ellipse transform="rotate(-71.766 631.27 243.873)" class="st10" cx="631.3" cy="243.9" rx="12.1" ry="7"/>
        <path class="st14" d="M582.8 329.9l5 7.8h7.8l5.1-7.8-8.9-9.7-9 9.7z"/>
        <path class="st14" d="M587.9 337.7l-7.2 50.3h22.2l-7.2-50.3z"/>
        <path class="st12" d="M570.9 294.2l-1.8 7.1 5.1 36.9 17.7-17.9-21-26.1z"/>
        <path class="st4" d="M570.9 285.3v1.5s10.6 12.6 20.8 13.1c10.2.5 20.9-12.2 20.9-12.2v-2.3"/>
        <path class="st25" d="M591.8 176.9c-64.1 0-39.5 87.8-35.4 94.6 4.6 7.4 25 23.8 35.4 23.8 10.4 0 30.7-16.4 35.4-23.8 4.2-6.8 28.7-94.6-35.4-94.6z"/>
        <path class="st11" d="M563.8 178.9c21.7-17 64.4-14.6 74.5-.4-4.1 14.3-1.1 52.5-4.1 72.8v-.1c0 .2-.1.4-.1.6 0 .2-.4.6-.5.8-.1.2-.9 0-1.2-.1-.1 0-.1-.2-.1-.3-.1-1.8 0-5.3 0-5.4.2-2.8.8-5.5 1.3-8.2-2-12.8-8-15.5-11.2-30.9l-2.1-3c-.9-1.1-1.7-2.2-2.8-3.2-.5-.3-1.1-.7-1.6-1.1-11.7-4.3-11.3-1.1-22.3 3.4-4.2 1.7-16 5-20.7 4.7-2-.2-8.8-.8-9-2.5-8.7 13.5-9.6 23.1-12.2 34.7.4 2 .7 4 .9 6.1 0 0 .1 3.6 0 5.4 0 .1 0 .2-.1.3-.3.1-1 .3-1.2.1-.1-.1-.4-.6-.5-.8-.2-.8-.2-1.4-.3-2.2-.1-1-.3-2.1-.4-3.2-3.2-12.5-9.3-62.1 13.7-67.5zm32.9 16.8c.4-.1.7-.2 1.1-.3-.5.1-1.1.3-1.6.4.1-.1.3-.1.5-.1z"/>
        <path class="st12" d="M612.6 294.2l1.4 7-4.8 37.4-17.4-18.3 20.8-26.1z"/>
        <path class="st6" d="M570.9 294.2l21 26 20.7-26v-.7l-20.7 26-21-26v.7"/>
        <path class="st7" d="M587.9 337.7h7.8v.3h-7.9z"/>
    </g>
    <g>
        <path class="st0" d="M318.4 219.8c-42.9 18.8-55.8 28.8-60.9 33.4-7.8 6.9-12.2 32.8-16.8 54.8h194.2c-4.6-22-9-47.8-16.8-54.8-5.1-4.5-17.5-14.3-60.4-33.1l-39.3-.3z"/>
        <path class="st21" d="M318.4 219.8c-42.9 18.8-55.8 28.8-60.9 33.4-7.8 6.9-12.2 32.8-16.8 54.8h194.2c-4.6-22-9-47.8-16.8-54.8-5.1-4.5-17.5-14.3-60.4-33.1l-39.3-.3z"/>
        <path class="st26" d="M316.9 182.3V229.9c11.5 13.6 30.2 14 41.7 0V182.3c0-25.7-41.7-25.7-41.7 0z"/>
        <ellipse transform="rotate(-18.223 298.128 163.891)" class="st26" cx="298.1" cy="163.9" rx="7" ry="12.1"/>
        <ellipse transform="rotate(-71.766 377.274 163.876)" class="st26" cx="377.3" cy="163.9" rx="12.1" ry="7"/>
        <path class="st14" d="M328.8 249.9l5 7.8h7.8l5.1-7.8-8.9-9.7-9 9.7z"/>
        <path class="st14" d="M333.9 257.7l-7.2 50.3h22.2l-7.2-50.3z"/>
        <path class="st12" d="M316.9 214.2l-1.8 7.1 5.1 36.9 17.7-17.9-21-26.1z"/>
        <path class="st4" d="M316.9 205.3v1.5s10.6 12.6 20.8 13.1c10.2.5 20.9-12.2 20.9-12.2v-2.3"/>
        <path class="st26" d="M337.8 96.9c-64.1 0-39.5 87.8-35.4 94.6 4.6 7.4 25 23.8 35.4 23.8 10.4 0 30.7-16.4 35.4-23.8 4.2-6.8 28.7-94.6-35.4-94.6z"/>
        <path class="st27" d="M367.4 98.9c-22.1-19.5-65.4 5.4-75.5 19.6 4.1 14.3 2.1 32.5 5.1 52.8v-.1c0 .2.1.4.1.6 0 .2.4.6.5.8.1.2.9 0 1.2-.1.1 0 .1-.2.1-.3.1-1.8 0-5.3 0-5.4-.2-2.8.2-5.6-.2-8.4 2-12.8.4-13.3 7.4-26.1.6-1.1 4.3-5.4 4.8-5.8 11.7-4.3 15.7 2.8 26.7 7.3 4.2 1.7 10.5 1.8 15.2 1.8 7.3 0 14.3-8 14.4-9.6 8.7 13.5 9.6 23.1 12.2 34.7-.3 2-.7 4-.9 6.1 0 0-.1 3.6 0 5.4 0 .1 0 .2.1.3.3.1 1 .3 1.2.1.1-.1.4-.6.5-.8.2-.8.2-1.4.3-2.2.1-1 .3-2.1.4-3.2 3.3-12.5 9.5-62.1-13.6-67.5zm-32.8 16.8c-.4-.1-.7-.2-1.1-.3.5.1 1.1.3 1.6.4-.2-.1-.4-.1-.5-.1z"/>
        <path class="st18" d="M129.3 89.4c22.6-19.5 67 5.4 77.3 19.6-4.2 14.3-2.1 32.5-5.2 52.8v-.1c0 .2-.1.4-.1.6 0 .2-.4.6-.5.8-.1.2-.9 0-1.2-.1-.1 0-.1-.2-.1-.3-.1-1.8 0-5.3 0-5.4.2-2.8-.2-5.6.3-8.4-2.1-12.8-.4-13.3-7.6-26.1-.6-1.1-4.4-5.4-5-5.8-11.9-4.3-16.1 2.8-27.4 7.3-4.3 1.7-10.8 1.8-15.6 1.8-7.4 0-14.6-8-14.8-9.6-8.9 13.5-9.8 23.1-12.5 34.7.4 2 .7 4 .9 6.1 0 0 .1 3.6 0 5.4 0 .1 0 .2-.1.3-.3.1-1.1.3-1.2.1-.1-.1-.4-.6-.5-.8-.2-.8-.2-1.4-.3-2.2-.1-1-.3-2.1-.5-3.2-3.2-12.5-9.5-62.2 14.1-67.5zm33.7 16.7c.4-.1.7-.2 1.1-.3-.5.1-1.1.3-1.6.4.1 0 .3-.1.5-.1z"/>
        <path class="st12" d="M358.6 214.2l1.4 7-4.8 37.4-17.4-18.3 20.8-26.1z"/>
        <path class="st6" d="M316.9 214.2l21 26 20.7-26v-.7l-20.7 26-21-26v.7"/>
        <path class="st7" d="M333.9 257.7h7.8v.3h-7.9z"/>
    </g>
    <g>
        <path class="st28" d="M451.2 229.4c4.5-7.9 40.8-14.9 55.5 13.2 14.8 28.1 7.3 37.9 15.5 47.8 8.2 9.9.5 32.6-5.2 34.6s-3.4 9.9-.6 13.2c11.8 14.4-5.3 38.7-50.8 38.5-48.7-.3-58.2-28.5-45.7-37.4 4.1-2.9 5.6-8.4 1.2-13.3-4.5-4.9-14.7-23-5-37.9 9.6-14.6 1.1-58.7 35.1-58.7z"/>
        <path class="st17" d="M485.5 345c-.4.6-35.6 1.1-35.9 1.7-11.1 15.8-34.9 22.7-53.9 26.9-18.9 4.2-19.6 28.2-19.7 44.2h184.2c0-16-.4-39.9-19.7-44.2-19.2-4.3-44.5-12.1-55-28.6z"/>
        <path class="st29" d="M449.7 311.3v45.2c9.2 18.9 25.9 19.4 36.9 0v-45.2c0-24.4-36.9-24.4-36.9 0z"/>
        <path class="st29" d="M516.8 290.2c-3.7-1.7-8.9 2.4-11.6 9.1-2.7 6.7-2 13.5 1.7 15.1 3.7 1.7 8.9-2.4 11.6-9.1 2.8-6.7 2-13.4-1.7-15.1z"/>
        <path class="st29" d="M419.5 290.2c3.7-1.7 8.9 2.4 11.6 9.1 2.7 6.7 2 13.5-1.7 15.1-3.7 1.7-8.9-2.4-11.6-9.1-2.8-6.7-2-13.4 1.7-15.1z"/>
        <path class="st23" d="M449.7 333.8v1.3s11.6 11.6 18.3 11.6c6.7 0 18.6-11.7 18.6-11.7v-1.1h-36.9z"/>
        <path class="st29" d="M468.2 342.6c-11.5 0-35.7-18.9-43.2-46-7.6-27.3 6.7-66.5 43.2-66.5s50.7 39.2 43.2 66.5c-7.6 27.1-31.8 46-43.2 46z"/>
        <path class="st8" d="M459.6 264c-9 18.8-12.6 24.3-24.5 19.4-11.9-5-9.6 8.9-7.5 18.8-10.5-13.4-9.3-26.1-6-39 3.6-14.2 21.7-35.7 38.7-35.3 9.2-1 23.2.2 38.1 10.9 26 18.7 17.3 60.8 10.3 65.7 6.8-38.9-9.8-31-21.3-51.4-3.7-8.9-18.1-9.5-27.8 10.9z"/>
        <path class="st3" d="M465.7 371.1h3.8v46.7h-3.8z"/>
        <path class="st3" d="M449.7 346.6l-13.2 12.1 16.7 26 14.5-13.7z"/>
        <path class="st3" d="M486.6 346.5l13.2 12.6-17.6 25.6-14.5-13.7z"/>
        <path class="st17" d="M488.2 310.7c.4 0 .7 0 1.1-.1 10.5-.9 13.1-5.6 14.2-11.5 1.3-6.5 1.4-8.8 3.1-9.4 1.2-.4 1.5-1.9 1.5-3.6 0-1.7-.1-1.9-2.1-2.6-1.6-.6-10.6-1.4-17.3-1v1.8c5.3-.3 10.4.3 11.9 1.3 3.4 2.2 2.4 12.7-.5 17.9-2 3.6-7.2 5.5-11.9 5.5v1.7zM468.6 286c-2.3.1-11.8-2.7-18.5-3.3-.5 0-1-.1-1.5-.1v1.8c5.5.2 11.1 1.5 13.1 4.4 3.2 4.8-2.5 16.5-7.7 19.1-1.6.8-3.6 1.2-5.8 1.2v1.7c9.1 0 12.4-6.5 13.5-8.7 2.1-4.1 1.7-9.8 6.9-9.8s4.5 5.5 6.4 9.6c1 2.2 3.9 9 13.3 8.7v-1.7c-2.3 0-4.5-.4-6.1-1.2-5-2.6-10-14.3-6.5-19.1 2.1-2.9 7.7-4.2 13.1-4.5v-1.8c-.4 0-.8.1-1.2.1-6.2.8-13.6 3.5-19 3.6zm-20-3.3c-6.6-.4-15.4.5-17.1 1-2.1.7-2.2.9-2.3 2.6-.1 1.7.1 3.2 1.3 3.6 1.7.6 1.6 2.9 2.5 9.4.8 5.9 3.1 10.6 13.5 11.5.5 0 1 .1 1.6.1v-1.7c-4.8 0-10.1-1.8-11.9-5.5-2.5-5.2-2.9-15.7.6-17.9 1.5-.9 6.5-1.6 11.7-1.4l.1-1.7z"/>
        <path class="st30" d="M449.7 346.6l18 24.4 18.9-24.5v-.5l-18.9 24.3-18-24.3z"/>
    </g>
    <g>
        <path class="st0" d="M208.5 334.3c-42.9 18.8-55.8 28.9-60.9 33.4-7.8 6.9-12.2 32.8-16.8 54.8H325c-4.6-22-9-47.8-16.8-54.8-5.1-4.5-17.5-14.3-60.4-33.1l-39.3-.3z"/>
        <path class="st1" d="M208.5 334.3c-42.9 18.8-55.8 28.9-60.9 33.4-7.8 6.9-12.2 32.8-16.8 54.8H325c-4.6-22-9-47.8-16.8-54.8-5.1-4.5-17.5-14.3-60.4-33.1l-39.3-.3z"/>
        <path class="st31" d="M207 296.8V344.4c11.5 13.6 30.2 14 41.7 0V296.8c0-25.7-41.7-25.7-41.7 0z"/>
        <ellipse transform="rotate(-18.223 188.223 278.39)" class="st31" cx="188.2" cy="278.4" rx="7" ry="12.1"/>
        <ellipse transform="rotate(-71.766 267.392 278.362)" class="st31" cx="267.4" cy="278.4" rx="12.1" ry="7"/>
        <path class="st3" d="M228 354.7s-29.1 6.9-29.1 8.7c0 1.8 11.1 59 11.1 59h39.5l4.5-58.8-26-8.9z"/>
        <path class="st32" d="M207 334.9v9.5l9.1 78h-15.6l-17.1-34.7 16.3-10.9-19.9-9.4 18.3-28.5z"/>
        <path class="st32" d="M248.7 335v9.4l-9.1 78h15.6l17.1-34.7-16.4-10.9 20-9.4-16.3-27.6z"/>
        <path class="st9" d="M218.9 364.4l5 7.8h7.8l5.1-7.8-8.9-9.7-9 9.7z"/>
        <path class="st9" d="M224 372.2l-7.2 50.2H239l-7.2-50.2z"/>
        <path class="st12" d="M207 328.6l-1.8 7.1 5.1 36.9 17.7-17.9-21-26.1z"/>
        <path class="st4" d="M207 319.8v1.5s10.6 12.6 20.8 13.1c10.2.5 20.9-12.2 20.9-12.2v-2.3"/>
        <path class="st33" d="M260.9 215c9.5 1.5 14.8 8.1 17.1 16.9 5.9 23.1-6.4 73.2-49 73.8-22 .3-37.8-5.3-43.6-23.1-5.8-17.8-8.1-46.4 4.4-62.5 15.7-20.2 48.8-20.4 71.1-5.1z"/>
        <path class="st31" d="M227.9 211.4c-64.1 0-39.5 87.8-35.4 94.6 4.6 7.4 25 23.8 35.4 23.8 10.4 0 30.7-16.4 35.4-23.8 4.2-6.8 28.7-94.6-35.4-94.6z"/>
        <path class="st33" d="M196.9 238.9c11.4 6.9 20.3-3.4 30.6 1s38.2-16.9 44.3 30c9.8-34-5-58.4-42.2-60-39.7-1.7-55.8 34.5-44.8 68.3-.9-18.2 3.6-30.2 12.1-39.3z"/>
        <path class="st34" d="M195.9 235.9c.3 5.9 10.3 6.8 14.5 7.1 4 .3 7.9-.4 11.7-1.5 4.7-1.3 10.6-3 14.4-6.2.4-.3.2-1-.3-1.1-7.2-1.2-14.7 4.7-21.9 5.4-5.7.5-13.2-.3-17.7-4.1-.3-.1-.8 0-.7.4z"/>
        <path class="st9" d="M247.7 293.1c.4 0 .7 0 1.1-.1 10.4-.9 13-5.6 14.2-11.5 1.3-6.5 1.4-8.8 3.1-9.4 1.2-.4 1.5-1.9 1.5-3.6 0-1.7-.1-1.9-2.1-2.6-1.6-.6-10.5-1.4-17.2-.9v1.8c5.3-.3 10.3.3 11.8 1.3 3.3 2.2 2.4 12.6-.5 17.8-2 3.6-7.1 5.4-11.8 5.5l-.1 1.7zm-19.5-24.6c-2.3.1-11.7-2.7-18.4-3.2-.5 0-1-.1-1.5-.1v1.8c5.4.2 11.1 1.5 13 4.4 3.2 4.8-2.5 16.4-7.7 19-1.6.8-3.6 1.2-5.8 1.2v1.7c9 0 12.4-6.5 13.5-8.7 2.1-4.1 1.7-9.7 6.8-9.7 5.2 0 4.5 5.5 6.3 9.6 1 2.2 3.9 9 13.3 8.7v-1.6c-2.3 0-4.5-.4-6.1-1.2-5-2.6-10-14.2-6.5-19 2.1-2.9 7.7-4.2 13.1-4.4v-1.8c-.4 0-.8.1-1.2.1-6 .4-13.3 3.1-18.8 3.2zm-19.9-3.3c-6.6-.4-15.4.5-17 1-2.1.7-2.1.9-2.3 2.6-.1 1.7.1 3.1 1.3 3.6 1.6.6 1.6 2.9 2.5 9.4.8 5.9 3.1 10.6 13.5 11.4.5 0 1 .1 1.5.1v-1.7c-4.8 0-10.1-1.8-11.9-5.5-2.5-5.2-2.9-15.6.6-17.8 1.5-.9 6.5-1.6 11.7-1.4l.1-1.7z"/>
        <path class="st12" d="M248.7 328.6l1.4 7-4.8 37.4-17.3-18.3 20.7-26.1z"/>
        <path class="st6" d="M207 328.6l21 26.1 20.7-26.1v-.6L228 354l-21-26v.6"/>
        <path class="st7" d="M224 372.2h7.8v.2h-7.9z"/>
    </g>
    <g>
        <path class="st0" d="M315.3 359.8c-42.9 18.8-55.8 28.8-60.9 33.4-7.8 6.9-12.2 32.8-16.8 54.8h194.2c-4.6-22-9-47.8-16.8-54.8-5.1-4.5-17.5-14.3-60.4-33.1l-39.3-.3z"/>
        <path class="st1" d="M315.3 359.8c-42.9 18.8-55.8 28.8-60.9 33.4-7.8 6.9-12.2 32.8-16.8 54.8h194.2c-4.6-22-9-47.8-16.8-54.8-5.1-4.5-17.5-14.3-60.4-33.1l-39.3-.3z"/>
        <path class="st35" d="M313.9 322.3V369.9c11.5 13.6 30.2 14 41.7 0V322.3c0-25.7-41.7-25.7-41.7 0z"/>
        <ellipse transform="rotate(-18.223 295.064 303.916)" class="st35" cx="295.1" cy="303.9" rx="7" ry="12.1"/>
        <ellipse transform="rotate(-71.766 374.244 303.903)" class="st35" cx="374.2" cy="303.9" rx="12.1" ry="7"/>
        <path class="st36" d="M334.8 380.3s-29.1 6.9-29.1 8.7c0 1.8 11.1 59 11.1 59h39.5l4.5-58.8-26-8.9z"/>
        <path class="st15" d="M313.9 360.5v9.4L323 448h-15.6l-17.1-34.8 16.3-10.9-20-9.3 18.4-28.5z"/>
        <path class="st16" d="M355.6 360.5v9.4l-9.2 78.1H362l17.1-34.8-16.3-10.9 20-9.3-16.4-27.7z"/>
        <path class="st37" d="M325.8 389.9l5 7.8h7.8l5-7.8-8.9-9.7-8.9 9.7z"/>
        <path class="st37" d="M330.8 397.7l-7.2 50.3h22.2l-7.1-50.3z"/>
        <path class="st3" d="M313.9 354.2l-1.8 7.1 5.1 36.9 17.7-17.9-21-26.1z"/>
        <path class="st4" d="M313.9 345.4v1.5s10.6 12.6 20.8 13.1c10.2.5 20.9-12.2 20.9-12.2v-2.3"/>
        <path class="st35" d="M334.8 236.9c-64.1 0-39.5 87.8-35.4 94.6 4.6 7.4 25 23.8 35.4 23.8 10.4 0 30.7-16.4 35.4-23.8 4.1-6.8 28.7-94.6-35.4-94.6z"/>
        <path class="st18" d="M363.5 238.9c-21.7-17-55.1-6.9-65.2 7.3-12.6 17.8-8.2 44.8-5.2 65v-.1c0 .2.1.4.1.6 0 .2.4.6.5.8.1.2.9 0 1.2-.1.1 0 .1-.2.1-.3.1-1.8 0-5.3 0-5.4-.2-2.8-.8-5.5-1.3-8.2 2-12.8 8-15.5 11.2-30.9l2.1-3c.9-1.1 1.7-2.2 2.8-3.2.5-.3 1.1-.7 1.6-1.1 11.7-4.3 23.7.9 34.7 5.3 4.2 1.7 8.9 3.7 13.6 3.4 2-.2 3.5-1.5 3.7-3.1 5.3 15.8 9.6 23.1 12.2 34.7-.4 2-.7 4-.9 6.1 0 0-.1 3.6 0 5.4 0 .1 0 .2.1.3.3.1 1 .3 1.2.1.1-.1.4-.6.5-.8.2-.8.2-1.4.3-2.2.1-1 .3-2.1.4-3.2 3.3-12.4 9.4-62-13.7-67.4zm-32.8 16.8c-.4-.1-.7-.2-1.1-.3.5.1 1.1.3 1.6.4-.1 0-.3-.1-.5-.1z"/>
        <path class="st3" d="M355.6 354.2l1.4 7-4.8 37.4-17.4-18.3 20.8-26.1z"/>
        <path class="st6" d="M313.9 354.2l20.9 26.1 20.8-26.1v-.6l-20.8 25.9-20.9-25.9v.6"/>
        <path class="st7" d="M330.8 397.7h7.9v.3h-7.9z"/>
    </g>
</svg>
