<svg xmlns="http://www.w3.org/2000/svg" viewBox="0 0 412.188 412.188">
    <path d="M395.605 211.599l-54.511-111.086-54.511 111.086-8.978-4.405 59-120.234a5 5 0 0 1 8.978 0l59 120.234-8.978 4.405z" fill="gray"/>
    <path d="M270 201.298h142.188c0 39.264-31.83 71.094-71.094 71.094S270 240.562 270 201.298z" fill="#f7cf52"/>
    <path fill="#ddb74b" d="M140.967 377.025h130.25v27.12h-130.25z"/>
    <path d="M271.217 377.025h-130.25c29.75 0 53.88-24.12 53.88-53.87V55.925h22.5v267.23c0 14.87 6.03 28.34 15.78 38.09s23.21 15.78 38.09 15.78z" fill="#f7cf52"/>
    <path d="M125.605 211.599L71.094 100.513 16.583 211.599l-8.978-4.405 59-120.234a5 5 0 0 1 8.978 0l59 120.234-8.978 4.405z" fill="gray"/>
    <path d="M0 201.298h142.188c0 39.264-31.83 71.094-71.094 71.094S0 240.562 0 201.298z" fill="#f7cf52"/>
    <circle cx="206.094" cy="33.304" r="25.261" fill="#ddb74b"/>
    <path fill="#ddb74b" d="M217.343 81.66h179.08v15h-179.08z"/>
    <path fill="#ddb74b" d="M15.763 81.66h179.08v15H15.763z"/>
</svg>
