<svg id="Logo_1_" xmlns="http://www.w3.org/2000/svg" viewBox="0 0 1165 346.1">
    <style>
        .st0{fill-rule:evenodd;clip-rule:evenodd;fill:#16a0d3}.st1{fill:#fff}.st2{fill-rule:evenodd;clip-rule:evenodd}.st2,.st3{fill:#343a8f}
    </style>
    <g id="LOGO_1_">
        <g id="Фигура_1_копия_3">
            <path class="st0" d="M671.1 325.9c-3.8 0-8.6-3.2-9.7-6.4-.8-2.4-.8-5.6-.8-8.5v-2.9c-.2-6.6-.2-13.3-.2-19.8v-.2-10c0-10.8.1-22-.3-33.1v-3c.1-5.9.3-14.8-5.4-17.1-5.7-2.3-13-2.5-19.4-2.8-2.2-.1-4.3-.1-6.2-.3-29.2-2.2-59.3-3.3-85.9-4.2-10.8-.4-21.8-.7-32.7-1.1H506.2c-2.5 0-3.9-.3-5.5-2.2-2.9-3.5-6.4-8.8-6.2-14.6.2-6.5 6.4-14 12.8-15.5 3.9-.9 8.3-1 11.8-1 1.8 0 3.6 0 5.4.1 1.8 0 3.5.1 5.2.1h2.7c49.5-1.5 99.9-2.4 148.7-3.3l9.8-.2h.1c2-.2 4-.3 5.8-.3 7.2 0 13.1 1.2 17.5 3.7 9 4.9 6.7 13.6 2.5 25.4-.5 1.5-1 2.9-1.5 4.3-9.7 29.4-19.2 58.7-28.4 87.1-.5 1.4-.9 2.8-1.3 4.3-1.2 3.9-2.4 7.9-4.1 11.4-3 6.2-6.1 9.4-9.7 9.9-.2.2-.5.2-.7.2z"/>
            <path class="st1" d="M696.8 181.9c6.8 0 12.4 1.1 16.6 3.4 7.6 4.1 5.6 11.8 1.5 23-.5 1.5-1.1 2.9-1.5 4.3-9.7 29.4-19.2 58.7-28.4 87.1-.5 1.4-.9 2.9-1.3 4.3-1.2 3.8-2.3 7.7-4 11.1-2.6 5.5-5.3 8.4-8.1 8.8h-.5c-2.9 0-6.9-2.6-7.8-5-.7-2-.7-5.1-.7-7.8v-3c-.2-6.6-.2-13.3-.2-19.8v-.2-10c0-10.8.1-22.1-.3-33.1v-2.9c.1-6.4.3-16.1-6.6-18.9-6-2.4-13.5-2.7-20.1-2.9-2.2-.1-4.2-.1-6.1-.3-29.3-2.2-59.4-3.3-86-4.2-10.9-.4-21.9-.7-32.7-1.1h-4.4c-2.2 0-2.9-.3-3.9-1.5-2.7-3.2-5.9-8.1-5.7-13.3.2-5.5 5.9-12.4 11.2-13.6 3.7-.9 8-1 11.3-1 1.8 0 3.6 0 5.4.1 1.7 0 3.5.1 5.3.1h2.8c49.5-1.5 99.9-2.4 148.6-3.3l6.2-.1 3.5-.1h.2c2 0 3.9-.1 5.7-.1m0-4c-2 0-4.1.1-6 .3-1.2 0-2.3 0-3.5.1-51.6 1-103.3 1.9-154.9 3.4h-2.7c-3.4 0-7-.1-10.6-.1-4.2 0-8.4.2-12.2 1.1-7.2 1.6-14.1 10-14.3 17.4-.2 5.9 2.9 11.6 6.7 16 2.1 2.5 4.3 2.9 7 2.9h4.2c10.9.3 21.8.7 32.7 1.1 28.6 1 57.3 2.1 85.8 4.2 7.6.6 17.8 0 25 2.9 5.3 2.2 3.9 13.5 4.1 18.3.5 14.3.3 28.6.3 43 0 6.7 0 13.4.2 20 .1 3.7-.3 8.4.9 12 1.4 4.1 7 7.7 11.6 7.7.3 0 .7 0 1-.1 5.6-.7 9.1-6.4 11.2-11 2.4-5 3.8-10.6 5.5-15.9 9.4-29 18.9-58.1 28.4-87.1 3.4-10.5 11-25.1-1.9-32.1-5.4-3.1-12.1-4.1-18.5-4.1z"/>
        </g>
        <g id="Фигура_1_копия_2">
            <path class="st2" d="M659 155.9c-7.2 0-13.1-1.2-17.6-3.7-9-4.9-6.7-13.6-2.5-25.4.5-1.5 1-2.9 1.5-4.3 9.7-29.4 19.2-58.7 28.4-87.1.5-1.4.9-2.8 1.3-4.3 1.2-3.9 2.4-7.9 4.1-11.4 3-6.2 6.1-9.4 9.7-9.9h.8c3.8 0 8.6 3.2 9.7 6.4.8 2.4.8 5.6.8 8.5v2.9c.2 6.6.2 13.4.2 19.9v10.1c0 10.8-.1 22 .3 33v3c-.1 5.9-.3 14.8 5.4 17.1 5.7 2.3 13 2.5 19.5 2.8 2.2.1 4.3.1 6.2.3 29.2 2.2 59.4 3.3 86 4.2 10.8.4 21.8.7 32.7 1.1H849.8c2.5 0 3.9.3 5.5 2.2 2.9 3.5 6.4 8.8 6.2 14.6-.2 6.5-6.4 14-12.8 15.5-3.9.9-8.4 1-11.8 1-1.8 0-3.6 0-5.4-.1-1.8 0-3.5-.1-5.2-.1h-2.7c-49.6 1.5-100 2.4-148.7 3.3l-9.8.2h-.1c-2.2.1-4.1.2-6 .2z"/>
            <path class="st1" d="M684.8 11.9c2.9 0 6.9 2.6 7.8 5 .7 2 .7 5.1.7 7.8v3c.2 6.6.2 13.3.2 19.8v10.2c0 10.8-.1 22.1.3 33.1v2.9c-.1 6.4-.3 16.1 6.6 18.9 6 2.4 13.5 2.7 20.1 2.9 2.2.1 4.2.1 6.1.3 29.3 2.2 59.4 3.3 86.1 4.2 10.9.4 21.9.7 32.7 1.1h4.4c2.2 0 2.9.3 3.9 1.5 2.7 3.2 5.9 8.1 5.7 13.3-.2 5.5-5.9 12.4-11.2 13.6-3.7.9-8 1-11.3 1-1.8 0-3.6 0-5.4-.1-1.7 0-3.5-.1-5.3-.1h-2.8c-49.6 1.5-100 2.4-148.7 3.3l-6.2.1-3.5.1h-.2c-2 .2-3.9.2-5.7.2-6.8 0-12.4-1.1-16.6-3.4-7.6-4.1-5.6-11.8-1.5-23 .5-1.5 1.1-2.9 1.5-4.3 9.7-29.4 19.2-58.7 28.4-87.1.5-1.4.9-2.9 1.3-4.3 1.2-3.8 2.4-7.7 4-11.1 2.6-5.5 5.3-8.4 8.1-8.8.1-.1.3-.1.5-.1m0-4c-.3 0-.7 0-1 .1-5.6.7-9.1 6.4-11.3 11-2.4 5-3.8 10.6-5.5 15.9-9.5 29-18.9 58.1-28.4 87.1-3.5 10.5-11 25.1 1.9 32.1 5.4 2.9 12.1 3.9 18.5 3.9 2 0 4.1-.1 6-.3 1.2 0 2.3 0 3.5-.1 51.7-1 103.4-1.9 155-3.4h2.7c3.4 0 7 .1 10.6.1 4.2 0 8.4-.2 12.2-1.1 7.2-1.6 14.1-10 14.3-17.4.2-5.9-2.9-11.6-6.7-16-2.1-2.5-4.3-2.9-7-2.9h-4.2c-10.9-.3-21.8-.7-32.7-1.1-28.6-1-57.3-2.1-85.9-4.2-7.6-.6-17.8 0-25.1-2.9-5.3-2.2-3.9-13.5-4.1-18.3-.5-14.3-.3-28.6-.3-43 0-6.7 0-13.4-.2-20-.1-3.7.3-8.4-.9-12-1.3-3.9-6.8-7.5-11.4-7.5z"/>
        </g>
        <g id="CREDIT">
            <path class="st1" d="M10.6 90c0-35.8 26.8-65.2 65-65.2 23.2 0 37.3 8.1 49.3 19.6l-14.2 16.4c-10.1-9.4-20.9-15.7-35.3-15.7C51.3 45.2 33.8 65 33.8 90c0 24.7 17.5 44.8 41.6 44.8 15.5 0 25.4-6.3 36.2-16.4l14.2 14.4c-13.1 13.7-27.5 22.3-51.1 22.3-36.7.1-64.1-28.6-64.1-65.1z"/>
            <path class="st1" d="M138.2 27h56.2c29.5 0 46.8 15.8 46.8 40.1 0 20.7-12.4 33.1-30.1 38.2l34 47.7H219l-31.3-43.9h-27.4V153h-22.1V27zm54.6 62.5c15.8 0 25.9-8.3 25.9-21.4 0-13.5-9.7-20.9-26.1-20.9h-32.2v42.3h32.4z"/>
            <path class="st1" d="M257.6 27H351v19.8h-71.3v32.8h63.2v19.8h-63.2v33.8h72.2V153h-94.3V27z"/>
            <path class="st1" d="M367.4 27h47c39.6 0 67 27.2 67 63 0 35.5-27.4 63-67 63h-47V27zm47 105.8c26.5 0 43.7-17.8 43.7-42.8 0-24.7-17.3-42.8-43.7-42.8h-24.8v85.7h24.8z"/>
            <path class="st1" d="M498.6 27h22.1v126h-22.1V27z"/>
            <path class="st1" d="M574.6 47.5h-40V27h102.2v20.5h-40V153h-22.3V47.5z"/>
        </g>
        <g id="PLUS">
            <path class="st3" d="M742.2 189h51.5c30.1 0 48.2 17.8 48.2 43.9 0 29.2-22.7 44.3-50.9 44.3h-21.1V315h-27.7V189zm49.6 63.5c13.9 0 22-8.3 22-19.4 0-12.4-8.6-19.1-22.5-19.1h-21.4v38.5h21.9z"/>
            <path class="st3" d="M851.6 189h27.7v100.8h62.8V315h-90.5V189z"/>
            <path class="st3" d="M946.6 261v-72h27.7v71.3c0 20.5 10.3 31.1 27.2 31.1s27.2-10.3 27.2-30.2V189h27.7v71.1c0 38.2-21.4 56.9-55.3 56.9-33.8 0-54.5-18.9-54.5-56z"/>
            <path class="st3" d="M1065.3 296.6l16.4-19.6c11.3 9.4 23.2 15.3 37.6 15.3 11.3 0 18.2-4.5 18.2-12.2 0-7-4.3-10.6-25.4-16-25.4-6.5-41.8-13.5-41.8-38.9 0-22.9 18.4-38 44.1-38 18.4 0 34 5.8 46.8 16l-14.4 20.9c-11.2-7.7-22.1-12.4-32.8-12.4s-16.2 4.9-16.2 11.3c0 8.3 5.4 11 27.2 16.6 25.6 6.7 40 15.8 40 38.2 0 25-19.1 39.1-46.3 39.1-19.1-.1-38.3-6.8-53.4-20.3z"/>
        </g>
        <g id="www.credit-plus.co.il">
            <path class="st1" d="M131.5 274.8l-8.2 25.1c-.2.7-.7 1-1.4 1h-3.2c-.8 0-1.2-.4-1.4-1.1l-5.2-18.7c-.1-.4-.3-1.1-.5-2-.2-.9-.4-1.6-.5-2.1h-.6l-1 4-5.1 18.7c-.2.8-.7 1.1-1.5 1.1h-3.1c-.8 0-1.2-.3-1.4-1l-8.2-25.1h3.6l6.2 20c.2.6.5 1.9 1 3.8h.7l1-3.8 5.2-19c.2-.7.6-1.1 1.4-1.1h3.1c.7 0 1.2.4 1.4 1.1l5.2 18.9 1 3.8h.8c.5-2.1.9-3.3 1-3.8l6.2-20h3.5z"/>
            <path class="st1" d="M175.8 274.8l-8.2 25.1c-.2.7-.7 1-1.4 1H163c-.8 0-1.2-.4-1.4-1.1l-5.2-18.7c-.1-.4-.3-1.1-.5-2-.2-.9-.4-1.6-.5-2.1h-.6l-1 4-5.1 18.7c-.2.8-.7 1.1-1.5 1.1h-3.1c-.8 0-1.2-.3-1.4-1l-8.2-25.1h3.6l6.2 20c.2.6.5 1.9 1 3.8h.7l1-3.8 5.2-19c.2-.7.6-1.1 1.4-1.1h3.1c.7 0 1.2.4 1.4 1.1l5.2 18.9 1 3.8h.8c.5-2.1.9-3.3 1-3.8l6.2-20h3.5z"/>
            <path class="st1" d="M220.1 274.8l-8.2 25.1c-.2.7-.7 1-1.4 1h-3.2c-.8 0-1.2-.4-1.4-1.1l-5.2-18.7c-.1-.4-.3-1.1-.5-2-.2-.9-.4-1.6-.5-2.1h-.6l-1 4-5.1 18.7c-.2.8-.7 1.1-1.5 1.1h-3.1c-.8 0-1.2-.3-1.4-1l-8.2-25.1h3.6l6.2 20c.2.6.5 1.9 1 3.8h.7l1-3.8 5.2-19c.2-.7.6-1.1 1.4-1.1h3.1c.7 0 1.2.4 1.4 1.1l5.2 18.9 1 3.8h.8c.5-2.1.9-3.3 1-3.8l6.2-20h3.5z"/>
            <path class="st1" d="M225.7 295.1h1.2c.9 0 1.3.5 1.3 1.4v3.1c0 .9-.5 1.3-1.3 1.3h-1.2c-.9 0-1.3-.5-1.3-1.3v-3.1c0-.9.5-1.4 1.3-1.4z"/>
            <path class="st1" d="M256 298l.4 2.4c-2.7.8-5.5 1.2-8.5 1.2-4.5 0-7.7-1-9.5-3.1-1.8-2.1-2.8-5.6-2.8-10.6s.9-8.6 2.8-10.7c1.8-2.1 5-3.1 9.5-3.1 3.2 0 5.9.4 8 1.2l-.5 2.2c-1.9-.3-4.2-.4-7-.4-3.5 0-5.9.8-7.2 2.3-1.4 1.5-2 4.4-2 8.5s.7 7 2 8.5 3.8 2.3 7.2 2.3c3-.1 5.5-.3 7.6-.7z"/>
            <path class="st1" d="M278.8 274.1l-.4 3.2H277c-1.5 0-3 .3-4.6.9-1.5.6-3.5 1.7-5.9 3.1v19.5H263v-26.1h2.6l.4 4.3c4.3-3.3 8.1-5 11.6-5h1.2z"/>
            <path class="st1" d="M298.7 289.5h-13.1c.2 3.5 1 5.8 2.4 7.1 1.4 1.3 3.6 1.9 6.7 1.9 2.7 0 5.7-.2 9-.6l.4 2.3c-2.2.9-5.5 1.3-9.9 1.3s-7.5-1.1-9.4-3.2c-1.9-2.1-2.8-5.7-2.8-10.7 0-5 .9-8.6 2.7-10.6 1.8-2 4.8-3.1 9-3.1 3.7 0 6.4.7 8.2 2 1.8 1.4 2.7 3.4 2.7 6.1.2 5.1-1.8 7.5-5.9 7.5zm-13-2.7H298c2.3 0 3.4-1.5 3.3-4.5 0-1.8-.6-3.2-1.8-4-1.2-.8-3-1.2-5.5-1.2-3.1 0-5.2.7-6.4 2.1-1.3 1.4-1.9 3.9-1.9 7.6z"/>
            <path class="st1" d="M331.2 300.9l-.4-4c-3.6 3.1-7.1 4.7-10.5 4.7-3.3 0-5.7-1.1-7.2-3.3-1.5-2.2-2.2-5.7-2.2-10.5 0-5 .8-8.5 2.3-10.6 1.5-2.1 4-3.1 7.5-3.1 3.3 0 6.6.8 9.9 2.5-.1-1.2-.2-2.9-.2-5.1v-8.4h3.4v37.8h-2.6zm-.8-6.5V279c-3.7-1.3-6.7-1.9-9-1.9-2.6 0-4.3.8-5.4 2.3s-1.5 4.3-1.5 8.3c0 4.1.5 6.9 1.5 8.5 1 1.6 2.8 2.3 5.2 2.3 1.5 0 2.9-.3 4.2-.9 1.4-.6 3-1.7 5-3.2z"/>
            <path class="st1" d="M344.1 263.7h1.6c.8 0 1.1.4 1.1 1.1v3.1c0 .8-.4 1.1-1.1 1.1h-1.6c-.8 0-1.1-.4-1.1-1.1v-3.1c0-.7.3-1.1 1.1-1.1zm2.5 37.2h-3.4v-26.1h3.4v26.1z"/>
            <path class="st1" d="M369.1 298.2l.4 2.6c-1.8.4-3.6.5-5.5.5-4.3 0-6.5-2.2-6.5-6.5v-17.3h-4.8V275l4.8-.3v-7.9h3.4v7.9h8.9v2.7H361v17c0 2.5 1.3 3.8 3.8 3.8h4.3z"/>
            <path class="st1" d="M391.7 288.6h-16.6v-2.7h16.6v2.7z"/>
            <path class="st1" d="M403.2 274.8l.3 4.3c3.3-3.3 6.9-5 10.8-5 3.2 0 5.6 1.1 7 3.3 1.4 2.2 2.2 5.7 2.2 10.5 0 4.9-.8 8.4-2.3 10.5-1.5 2.1-4 3.1-7.4 3.1-3.5 0-6.8-.9-10.1-2.8.1 1.5.2 3.2.1 5.2v7.9h-3.4v-37.2h2.8zm.6 6.8v15c4 1.3 7.1 1.9 9.2 1.9 2.6 0 4.4-.8 5.4-2.3 1-1.5 1.6-4.3 1.6-8.3 0-4-.5-6.8-1.5-8.4-1-1.6-2.7-2.4-5.1-2.4-1.4 0-2.9.4-4.3 1.1-1.5.6-3.3 1.8-5.3 3.4z"/>
            <path class="st1" d="M434.8 263.1v31.3c0 2.5 1.3 3.8 3.8 3.8h2.8l.4 2.6c-1 .4-2.4.5-4.3.5s-3.3-.5-4.4-1.6c-1.1-1.1-1.6-2.6-1.6-4.6v-32h3.3z"/>
            <path class="st1" d="M468.3 274.8v26.1h-2.7l-.3-4.1c-4 3.2-7.9 4.8-11.6 4.8-4.7 0-7.1-2.4-7.1-7.1v-19.7h3.4v18.7c0 1.8.4 3.1 1.1 3.9.8.8 2 1.2 3.7 1.2 1.5 0 3-.3 4.4-1 1.5-.7 3.3-1.8 5.6-3.3v-19.5h3.5z"/>
            <path class="st1" d="M489.6 289.8l-8-1.5c-2.1-.4-3.5-1.1-4.5-2.2-.9-1.1-1.4-2.7-1.4-4.9 0-3 .7-4.9 2.2-5.8 1.5-.9 4.1-1.4 7.8-1.3 4 .1 7.5.3 10.7.8l-.3 2.5c-4.3-.2-7.6-.3-9.9-.3-2.9 0-4.8.2-5.7.6-.9.5-1.4 1.6-1.4 3.5 0 1.5.3 2.5.9 3.1.6.6 1.6 1 3.1 1.3l8 1.5c2.1.4 3.6 1.2 4.6 2.2 1 1.1 1.5 2.7 1.5 4.8 0 3.1-.8 5.1-2.5 6-1.6.9-4.4 1.4-8.4 1.4-3.6 0-6.9-.2-10-.7l.3-2.5c2.8.3 5.9.4 9.1.3 3.2 0 5.4-.3 6.5-.9 1.1-.6 1.6-1.8 1.6-3.6 0-1.4-.3-2.4-1-3-.6-.6-1.7-1-3.2-1.3z"/>
            <path class="st1" d="M505.5 295.1h1.2c.9 0 1.3.5 1.3 1.4v3.1c0 .9-.5 1.3-1.3 1.3h-1.2c-.9 0-1.3-.5-1.3-1.3v-3.1c0-.9.4-1.4 1.3-1.4z"/>
            <path class="st1" d="M535.7 298l.4 2.4c-2.7.8-5.5 1.2-8.5 1.2-4.5 0-7.7-1-9.5-3.1-1.8-2.1-2.8-5.6-2.8-10.6s.9-8.6 2.8-10.7c1.8-2.1 5-3.1 9.5-3.1 3.2 0 5.9.4 8 1.2l-.5 2.2c-1.9-.3-4.2-.4-7-.4-3.5 0-5.9.8-7.2 2.3-1.4 1.5-2 4.4-2 8.5s.7 7 2 8.5 3.8 2.3 7.2 2.3c3-.1 5.6-.3 7.6-.7z"/>
            <path class="st1" d="M543.8 277.2c1.8-2.1 4.9-3.1 9.3-3.1s7.5 1 9.3 3.1c1.8 2.1 2.7 5.6 2.7 10.7 0 5-.9 8.6-2.7 10.6-1.8 2.1-4.9 3.1-9.3 3.1s-7.5-1-9.3-3.1c-1.8-2.1-2.7-5.6-2.7-10.6-.1-5.1.8-8.7 2.7-10.7zm15.9 2.1c-1.2-1.5-3.4-2.3-6.6-2.3-3.2 0-5.4.8-6.6 2.3-1.2 1.5-1.8 4.4-1.8 8.5s.6 6.9 1.8 8.5c1.2 1.5 3.4 2.3 6.6 2.3 3.2 0 5.4-.8 6.6-2.3 1.2-1.5 1.8-4.4 1.8-8.5s-.6-6.9-1.8-8.5z"/>
            <path class="st1" d="M573.6 295.1h1.2c.9 0 1.3.5 1.3 1.4v3.1c0 .9-.5 1.3-1.3 1.3h-1.2c-.9 0-1.3-.5-1.3-1.3v-3.1c0-.9.5-1.4 1.3-1.4z"/>
            <path class="st1" d="M585.9 263.7h1.6c.8 0 1.1.4 1.1 1.1v3.1c0 .8-.4 1.1-1.1 1.1h-1.6c-.8 0-1.1-.4-1.1-1.1v-3.1c0-.7.3-1.1 1.1-1.1zm2.5 37.2H585v-26.1h3.4v26.1z"/>
            <path class="st1" d="M601.1 263.1v31.3c0 2.5 1.3 3.8 3.8 3.8h2.8l.4 2.6c-1 .4-2.4.5-4.3.5s-3.3-.5-4.4-1.6c-1.1-1.1-1.6-2.6-1.6-4.6v-32h3.3z"/>
        </g>
    </g>
</svg>
